<svg width="447" height="45" viewBox="0 0 447 45" fill="none" xmlns="http://www.w3.org/2000/svg">
<path d="M34.415 35V7.98438H43.8779C47.1559 7.98438 49.6423 8.61523 51.3369 9.87695C53.0316 11.1263 53.8789 12.9632 53.8789 15.3877C53.8789 16.7113 53.5387 17.8802 52.8584 18.8945C52.1781 19.8965 51.2318 20.6325 50.0195 21.1025C51.4049 21.4489 52.4935 22.1478 53.2852 23.1992C54.0892 24.2507 54.4912 25.5371 54.4912 27.0586C54.4912 29.6562 53.6624 31.623 52.0049 32.959C50.3473 34.2949 47.9847 34.9753 44.917 35H34.415ZM39.9814 23.2363V30.5283H44.75C46.0612 30.5283 47.0817 30.2191 47.8115 29.6006C48.5537 28.9697 48.9248 28.1038 48.9248 27.0029C48.9248 24.529 47.6445 23.2734 45.084 23.2363H39.9814ZM39.9814 19.3027H44.1006C46.9085 19.2533 48.3125 18.1338 48.3125 15.9443C48.3125 14.7197 47.9538 13.8415 47.2363 13.3096C46.5312 12.7653 45.4118 12.4932 43.8779 12.4932H39.9814V19.3027ZM74.9385 23.292H64.251V30.5283H76.7939V35H58.6846V7.98438H76.7568V12.4932H64.251V18.9316H74.9385V23.292ZM88.873 23.96H85.6631V35H80.0967V7.98438H85.6631V18.8018H88.2051L94.8105 7.98438H101.602L93.2705 20.7686L102.474 35H95.8311L88.873 23.96ZM124.962 12.4932H116.687V35H111.12V12.4932H102.956V7.98438H124.962V12.4932ZM149.825 22.1045C149.825 24.764 149.355 27.0957 148.415 29.0996C147.475 31.1035 146.127 32.6497 144.37 33.7383C142.626 34.8268 140.622 35.3711 138.358 35.3711C136.119 35.3711 134.122 34.833 132.365 33.7568C130.609 32.6807 129.248 31.1468 128.283 29.1553C127.318 27.1514 126.83 24.8506 126.817 22.2529V20.917C126.817 18.2575 127.294 15.9196 128.246 13.9033C129.211 11.8747 130.565 10.3223 132.31 9.24609C134.066 8.15755 136.07 7.61328 138.321 7.61328C140.573 7.61328 142.57 8.15755 144.314 9.24609C146.071 10.3223 147.425 11.8747 148.378 13.9033C149.343 15.9196 149.825 18.2513 149.825 20.8984V22.1045ZM144.185 20.8799C144.185 18.0472 143.677 15.8949 142.663 14.4229C141.649 12.9508 140.201 12.2148 138.321 12.2148C136.453 12.2148 135.012 12.9447 133.998 14.4043C132.984 15.8516 132.47 17.9792 132.458 20.7871V22.1045C132.458 24.863 132.965 27.0029 133.979 28.5244C134.994 30.0459 136.453 30.8066 138.358 30.8066C140.226 30.8066 141.661 30.0768 142.663 28.6172C143.665 27.1452 144.172 25.0052 144.185 22.1973V20.8799ZM159.437 25.4814V35H153.87V7.98438H164.409C166.438 7.98438 168.219 8.35547 169.753 9.09766C171.299 9.83984 172.487 10.8975 173.315 12.2705C174.144 13.6312 174.559 15.1836 174.559 16.9277C174.559 19.5749 173.649 21.6654 171.831 23.1992C170.025 24.7207 167.52 25.4814 164.316 25.4814H159.437ZM159.437 20.9727H164.409C165.881 20.9727 167.001 20.6263 167.768 19.9336C168.547 19.2409 168.937 18.2513 168.937 16.9648C168.937 15.6413 168.547 14.5713 167.768 13.7549C166.988 12.9385 165.912 12.5179 164.539 12.4932H159.437V20.9727Z" fill="black"/>
<path d="M194.598 7.98438H200.183V35H194.598V17.0576L183.78 35H178.214V7.98438H183.78V25.9639L194.598 7.98438ZM226.994 35H221.428V23.4219H210.573V35H205.007V7.98438H210.573V18.9316H221.428V7.98438H226.994V35ZM254.993 23.9971H251.783V35H246.217V23.9971H242.933L237.051 35H230.111L238.535 20.5088L230.52 7.98438H237.44L243.452 18.876H246.217V7.98438H251.783V18.876H254.492L260.355 7.98438H267.258L259.391 20.4902L267.685 35H260.727L254.993 23.9971ZM286.332 7.98438H291.917V35H286.332V17.0576L275.515 35H269.948V7.98438H275.515V25.9639L286.332 7.98438ZM318.729 35H313.162V23.4219H302.308V35H296.741V7.98438H302.308V18.9316H313.162V7.98438H318.729V35ZM339.807 7.98438H345.392V35H339.807V17.0576L328.989 35H323.423V7.98438H328.989V25.9639L339.807 7.98438ZM355.782 25.4814V35H350.216V7.98438H360.755C362.784 7.98438 364.565 8.35547 366.099 9.09766C367.645 9.83984 368.832 10.8975 369.661 12.2705C370.49 13.6312 370.904 15.1836 370.904 16.9277C370.904 19.5749 369.995 21.6654 368.177 23.1992C366.371 24.7207 363.866 25.4814 360.662 25.4814H355.782ZM355.782 20.9727H360.755C362.227 20.9727 363.346 20.6263 364.113 19.9336C364.893 19.2409 365.282 18.2513 365.282 16.9648C365.282 15.6413 364.893 14.5713 364.113 13.7549C363.334 12.9385 362.258 12.5179 360.885 12.4932H355.782V20.9727ZM390.943 7.98438H396.528V35H390.943V17.0576L380.126 35H374.56V7.98438H380.126V25.9639L390.943 7.98438ZM423.34 35H417.773V23.4219H406.919V35H401.353V7.98438H406.919V18.9316H417.773V7.98438H423.34V35ZM445.939 12.4932H433.823V35H428.257V7.98438H445.939V12.4932Z" fill="#00A8D6"/>
<path fill-rule="evenodd" clip-rule="evenodd" d="M28 8H0V36H28V8ZM2.25 30.1875H25V21.3438C24.9792 18.7604 24.4062 16.7708 23.2812 15.375C22.1562 13.9792 20.5 13.2812 18.3125 13.2812C17.0312 13.2812 15.9479 13.6198 15.0625 14.2969C14.1771 14.9635 13.5885 15.8802 13.2969 17.0469C12.901 16.026 12.2812 15.2292 11.4375 14.6562C10.5833 14.0833 9.59896 13.7969 8.48438 13.7969C6.44271 13.7969 4.89583 14.5104 3.84375 15.9375C2.78125 17.3646 2.25 19.4583 2.25 22.2188V30.1875ZM21.2344 25.5H15.0938V21.2031C15.125 19.0469 16.1823 17.9688 18.2656 17.9688C19.1927 17.9688 19.9219 18.2812 20.4531 18.9062C20.974 19.5208 21.2344 20.3802 21.2344 21.4844V25.5ZM11.7812 22.0312V25.5H6.04688V22.2188C6.04688 20.9271 6.27604 19.9844 6.73438 19.3906C7.18229 18.7865 7.92188 18.4844 8.95312 18.4844C10.7969 18.4844 11.7396 19.6667 11.7812 22.0312Z" fill="#00A8D6"/>
</svg>
