<svg width="125" height="36" viewBox="0 0 125 36" fill="none" xmlns="http://www.w3.org/2000/svg">
<path d="M37.6289 18V3.78125H42.6094C44.3346 3.78125 45.6432 4.11328 46.5352 4.77734C47.4271 5.4349 47.873 6.40169 47.873 7.67773C47.873 8.37435 47.694 8.98958 47.3359 9.52344C46.9779 10.0508 46.4798 10.4382 45.8418 10.6855C46.571 10.8678 47.1439 11.2357 47.5605 11.7891C47.9837 12.3424 48.1953 13.0195 48.1953 13.8203C48.1953 15.1875 47.7591 16.2227 46.8867 16.9258C46.0143 17.6289 44.7708 17.987 43.1562 18H37.6289ZM40.5586 11.8086V15.6465H43.0684C43.7585 15.6465 44.2956 15.4837 44.6797 15.1582C45.0703 14.8262 45.2656 14.3704 45.2656 13.791C45.2656 12.4889 44.5918 11.8281 43.2441 11.8086H40.5586ZM40.5586 9.73828H42.7266C44.2044 9.71224 44.9434 9.12305 44.9434 7.9707C44.9434 7.32617 44.7546 6.86393 44.377 6.58398C44.0059 6.29753 43.4167 6.1543 42.6094 6.1543H40.5586V9.73828ZM61.457 11.8379H55.832V15.6465H62.4336V18H52.9023V3.78125H62.4141V6.1543H55.832V9.54297H61.457V11.8379ZM71.291 12.1895H69.6016V18H66.6719V3.78125H69.6016V9.47461H70.9395L74.416 3.78125H77.9902L73.6055 10.5098L78.4492 18H74.9531L71.291 12.1895ZM92.7852 6.1543H88.4297V18H85.5V6.1543H81.2031V3.78125H92.7852V6.1543ZM108.371 11.2129C108.371 12.6126 108.124 13.8398 107.629 14.8945C107.134 15.9492 106.424 16.763 105.5 17.3359C104.582 17.9089 103.527 18.1953 102.336 18.1953C101.158 18.1953 100.106 17.9121 99.1816 17.3457C98.2572 16.7793 97.541 15.972 97.0332 14.9238C96.5254 13.8691 96.2682 12.6582 96.2617 11.291V10.5879C96.2617 9.18815 96.5124 7.95768 97.0137 6.89648C97.5215 5.82878 98.2344 5.01172 99.1523 4.44531C100.077 3.8724 101.132 3.58594 102.316 3.58594C103.501 3.58594 104.553 3.8724 105.471 4.44531C106.395 5.01172 107.108 5.82878 107.609 6.89648C108.117 7.95768 108.371 9.1849 108.371 10.5781V11.2129ZM105.402 10.5684C105.402 9.07747 105.135 7.94466 104.602 7.16992C104.068 6.39518 103.306 6.00781 102.316 6.00781C101.333 6.00781 100.575 6.39193 100.041 7.16016C99.5072 7.92188 99.237 9.04167 99.2305 10.5195V11.2129C99.2305 12.6647 99.4974 13.791 100.031 14.5918C100.565 15.3926 101.333 15.793 102.336 15.793C103.319 15.793 104.074 15.4089 104.602 14.6406C105.129 13.8659 105.396 12.7396 105.402 11.2617V10.5684ZM115.93 12.9902V18H113V3.78125H118.547C119.615 3.78125 120.552 3.97656 121.359 4.36719C122.173 4.75781 122.798 5.31445 123.234 6.03711C123.671 6.75326 123.889 7.57031 123.889 8.48828C123.889 9.88151 123.41 10.9818 122.453 11.7891C121.503 12.5898 120.184 12.9902 118.498 12.9902H115.93ZM115.93 10.6172H118.547C119.322 10.6172 119.911 10.4349 120.314 10.0703C120.725 9.70573 120.93 9.1849 120.93 8.50781C120.93 7.8112 120.725 7.24805 120.314 6.81836C119.904 6.38867 119.338 6.16732 118.615 6.1543H115.93V10.6172ZM42.0191 25.6602H43.7125V32H42.0191V28.0859L39.898 32H38.1988V25.6602H39.898V29.5684L42.0191 25.6602ZM52.3035 32H50.6043V29.5625H48.5008V32H46.8074V25.6602H48.5008V28.2031H50.6043V25.6602H52.3035V32ZM61.5156 29.6504H60.748V32H59.0547V29.6504H58.2988L57.0391 32H54.9941L56.9922 28.6836L55.0176 25.6602H57.1152L58.4336 28.0273H59.0547V25.6602H60.748V28.0273H61.3809L62.7051 25.6602H64.8027L62.8398 28.6426L64.8555 32H62.7754L61.5156 29.6504ZM71.2902 25.6602H72.9836V32H71.2902V28.0859L69.1691 32H67.4699V25.6602H69.1691V29.5684L71.2902 25.6602ZM81.5746 32H79.8754V29.5625H77.7719V32H76.0785V25.6602H77.7719V28.2031H79.8754V25.6602H81.5746V32ZM88.5074 25.6602H90.2008V32H88.5074V28.0859L86.3863 32H84.6871V25.6602H86.3863V29.5684L88.5074 25.6602ZM99.0027 28.8887C99.0027 29.8652 98.7801 30.6484 98.3348 31.2383C97.8934 31.8242 97.2957 32.1172 96.5418 32.1172C95.9012 32.1172 95.3836 31.8945 94.9891 31.4492V34.4375H93.2957V25.6602H94.866L94.9246 26.2812C95.3348 25.7891 95.8699 25.543 96.5301 25.543C97.3113 25.543 97.9188 25.832 98.3523 26.4102C98.7859 26.9883 99.0027 27.7852 99.0027 28.8008V28.8887ZM97.3094 28.7656C97.3094 28.1758 97.2039 27.7207 96.993 27.4004C96.7859 27.0801 96.4832 26.9199 96.0848 26.9199C95.5535 26.9199 95.1883 27.123 94.9891 27.5293V30.125C95.1961 30.543 95.5652 30.752 96.0965 30.752C96.9051 30.752 97.3094 30.0898 97.3094 28.7656ZM105.678 25.6602H107.371V32H105.678V28.0859L103.557 32H101.857V25.6602H103.557V29.5684L105.678 25.6602ZM115.962 32H114.263V29.5625H112.159V32H110.466V25.6602H112.159V28.2031H114.263V25.6602H115.962V32ZM123.393 27.0312H120.768V32H119.075V25.6602H123.393V27.0312Z" fill="black"/>
<path fill-rule="evenodd" clip-rule="evenodd" d="M28 4H0V32H28V4ZM2.25 26.1875H25V17.3438C24.9792 14.7604 24.4062 12.7708 23.2812 11.375C22.1562 9.97919 20.5 9.28125 18.3125 9.28125C17.0312 9.28125 15.9479 9.61981 15.0625 10.2969C14.1771 10.9636 13.5885 11.8802 13.2969 13.0469C12.901 12.0261 12.2812 11.2292 11.4375 10.6562C10.5833 10.0833 9.59896 9.79688 8.48438 9.79688C6.44271 9.79688 4.89583 10.5104 3.84375 11.9375C2.78125 13.3646 2.25 15.4583 2.25 18.2188V26.1875ZM21.2344 21.5H15.0938V17.2031C15.125 15.0469 16.1823 13.9688 18.2656 13.9688C19.1927 13.9688 19.9219 14.2812 20.4531 14.9062C20.974 15.5208 21.2344 16.3802 21.2344 17.4844V21.5ZM11.7812 18.0312V21.5H6.04688V18.2188C6.04688 16.9271 6.27604 15.9844 6.73438 15.3906C7.18229 14.7864 7.92188 14.4844 8.95312 14.4844C10.7969 14.4844 11.7396 15.6667 11.7812 18.0312Z" fill="#00A8D6"/>
</svg>
